<?xml version="1.0" encoding="UTF-8"?>
<svg width="24px" height="24px" viewBox="0 0 24 24" version="1.1" xmlns="http://www.w3.org/2000/svg" xmlns:xlink="http://www.w3.org/1999/xlink">
    <title>编组备份 3</title>
    <defs>
        <filter color-interpolation-filters="auto" id="filter-1">
            <feColorMatrix in="SourceGraphic" type="matrix" values="0 0 0 0 0.000000 0 0 0 0 0.647059 0 0 0 0 1.000000 0 0 0 1.000000 0"></feColorMatrix>
        </filter>
        <filter color-interpolation-filters="auto" id="filter-2">
            <feColorMatrix in="SourceGraphic" type="matrix" values="0 0 0 0 0.400000 0 0 0 0 0.400000 0 0 0 0 0.400000 0 0 0 1.000000 0"></feColorMatrix>
        </filter>
    </defs>
    <g id="页面-1" stroke="none" stroke-width="1" fill="none" fill-rule="evenodd">
        <g id="编组备份-3" transform="translate(-274.000000, -192.000000)" filter="url(#filter-1)">
            <g transform="translate(274.000000, 192.000000)">
                <rect id="矩形" x="0" y="0" width="24" height="24"></rect>
                <g filter="url(#filter-2)" id="编组">
                    <g transform="translate(3.000000, 3.000000)">
                        <path d="M9,15.75 C8.37931034,15.75 7.875,15.3771145 7.875,14.9181785 L7.875,7.58182152 C7.875,7.12288551 8.37931034,6.75 9,6.75 C9.62068966,6.75 10.125,7.12288551 10.125,7.58182152 L10.125,14.9181785 C10.125,15.3771145 9.62068966,15.75 9,15.75 L9,15.75 Z" id="路径" fill="#202D41" fill-rule="nonzero"></path>
                        <path d="M7.875,4.5 C7.875,5.12132034 8.37867966,5.625 9,5.625 C9.62132034,5.625 10.125,5.12132034 10.125,4.5 C10.125,3.87867966 9.62132034,3.375 9,3.375 C8.37867966,3.375 7.875,3.87867966 7.875,4.5 L7.875,4.5 Z" id="路径" fill="#202D41" fill-rule="nonzero"></path>
                        <circle id="椭圆形" stroke="#202D41" stroke-width="1.2" cx="9" cy="9" r="8.4"></circle>
                    </g>
                </g>
            </g>
        </g>
    </g>
</svg>