<?xml version="1.0" encoding="UTF-8"?>
<svg width="24px" height="24px" viewBox="0 0 24 24" version="1.1" xmlns="http://www.w3.org/2000/svg" xmlns:xlink="http://www.w3.org/1999/xlink">
    <title>编组</title>
    <defs>
        <filter color-interpolation-filters="auto" id="filter-1">
            <feColorMatrix in="SourceGraphic" type="matrix" values="0 0 0 0 0.000000 0 0 0 0 0.647059 0 0 0 0 1.000000 0 0 0 1.000000 0"></feColorMatrix>
        </filter>
    </defs>
    <g id="页面-1" stroke="none" stroke-width="1" fill="none" fill-rule="evenodd">
        <g id="编组" transform="translate(-27.000000, -192.000000)" filter="url(#filter-1)">
            <g transform="translate(27.000000, 192.000000)">
                <rect id="矩形" x="0" y="0" width="24" height="24"></rect>
                <g transform="translate(4.421053, 2.526316)" fill="#202D41" fill-rule="nonzero" id="形状">
                    <path d="M7.58020821,16.5040571 C6.81865702,16.5040571 6.20336401,15.9130758 6.20336401,15.1870131 C6.20336401,14.4585382 6.82117872,13.869969 7.58020821,13.869969 C8.34175941,13.869969 8.95705242,14.4609503 8.95705242,15.1870131 C8.95705242,15.915488 8.34175941,16.5040571 7.58020821,16.5040571 Z M2.75621011,0 L12.4016846,0 C13.924787,0 15.1578947,1.17955041 15.1578947,2.6365002 L15.1578947,15.816589 C15.1578947,17.2735388 13.924787,18.4530892 12.4016846,18.4530892 L2.75621011,18.4530892 C1.23310772,18.4530892 0,17.2735388 0,15.816589 L0,2.6365002 C0.00252169269,1.17955041 1.23562942,0 2.75621011,0 Z M13.7810505,13.1921497 L1.3793659,13.1921497 L1.3793659,15.816589 C1.3793659,16.5450639 1.99718061,17.1336331 2.75621011,17.1336331 L12.4016846,17.1336331 C13.1632358,17.1336331 13.7785288,16.5426518 13.7785288,15.816589 L13.7785288,13.1921497 L13.7810505,13.1921497 Z M13.7810505,11.8726935 L13.7810505,2.63408803 C13.7810505,1.90561314 13.1632358,1.31704402 12.4042063,1.31704402 L2.75621011,1.31704402 C1.99465891,1.31704402 1.3793659,1.90802531 1.3793659,2.63408803 L1.3793659,11.8726935 L13.7810505,11.8726935 Z"></path>
                </g>
            </g>
        </g>
    </g>
</svg>