<?xml version="1.0" encoding="UTF-8"?>
<svg width="24px" height="24px" viewBox="0 0 24 24" version="1.1" xmlns="http://www.w3.org/2000/svg" xmlns:xlink="http://www.w3.org/1999/xlink">
    <title>编组备份 2</title>
    <defs>
        <filter color-interpolation-filters="auto" id="filter-1">
            <feColorMatrix in="SourceGraphic" type="matrix" values="0 0 0 0 0.000000 0 0 0 0 0.647059 0 0 0 0 1.000000 0 0 0 1.000000 0"></feColorMatrix>
        </filter>
    </defs>
    <g id="页面-1" stroke="none" stroke-width="1" fill="none" fill-rule="evenodd">
        <g id="编组备份-2" transform="translate(-144.000000, -192.000000)" filter="url(#filter-1)">
            <g transform="translate(144.000000, 192.000000)">
                <rect id="矩形" x="0" y="0" width="24" height="24"></rect>
                <g id="编组" transform="translate(4.421053, 4.421053)" fill="#202D41" fill-rule="nonzero">
                    <path d="M8.45893991,7.96523949 L8.45893991,0.563893859 C8.45893991,0.252472689 8.20378325,0 7.89234952,0 C7.5809158,0 7.32575914,0.252472689 7.32575912,0.563893859 L7.32575912,7.9663217 C6.35809912,8.21745755 5.63731975,9.10002974 5.63731975,10.1503441 C5.63731975,11.20225 6.35669857,12.0859044 7.33072476,12.3355124 C7.32760662,12.3589193 7.3259482,12.3824976 7.32575912,12.4061105 L7.32575912,15.2255798 C7.32575912,15.537001 7.58091578,15.7894737 7.89234952,15.7894737 C8.20378327,15.7894737 8.45893991,15.537001 8.45893991,15.2255798 L8.45893991,12.4061105 C8.45849347,12.3828671 8.45662255,12.3596728 8.45333768,12.3366583 C9.4294647,12.0883871 10.152154,11.2035232 10.152154,10.1504714 C10.1523449,9.09856556 9.43296608,8.21497483 8.45893991,7.96523949 Z M8.69194226,10.9478039 C8.31146097,11.3282813 7.71518683,11.3870164 7.26777642,11.0880891 C6.82036602,10.7891619 6.64642899,10.2158275 6.85233802,9.71871352 C7.05824705,9.22159954 7.58665379,8.93915872 8.11440655,9.04412017 C8.64215931,9.14908163 9.02228805,9.61221222 9.02228805,10.1502805 C9.02313159,10.4495931 8.90417688,10.7368014 8.69194226,10.9478675 L8.69194226,10.9478039 Z M2.81334412,2.32617358 C2.81652398,2.30279176 2.81824617,2.27923477 2.81850071,2.25563911 L2.81850071,0.563893859 C2.81850071,0.252745144 2.56625467,0.000509274 2.25509341,0.000509274 C1.94393215,0.000509274 1.69168611,0.252745144 1.69168611,0.563893859 L1.69168611,2.25563911 C1.69124723,2.27953324 1.69231036,2.30343134 1.69486921,2.32719212 C0.720843019,2.57673649 0,3.46032722 0,4.51236041 C0,5.5643936 0.720970362,6.44760237 1.69499653,6.69746503 C1.6925052,6.7205071 1.69142094,6.74367961 1.69174979,6.76685363 L1.69174979,15.2255798 C1.69174978,15.4268578 1.7991346,15.6128462 1.97345343,15.7134852 C2.14777226,15.8141242 2.36254191,15.8141242 2.53686074,15.7134852 C2.71117957,15.6128462 2.81856439,15.4268578 2.81856439,15.2255798 L2.81856439,6.7669173 C2.8183085,6.74402822 2.81667153,6.72117545 2.81366242,6.69848357 C3.78972579,6.4502124 4.51165107,5.56534848 4.51165107,4.51236041 C4.51165107,3.45937234 3.78953479,2.57431743 2.81334412,2.32617358 Z M3.05258531,5.30988381 C2.67210401,5.69036125 2.07582988,5.74909631 1.62841947,5.45016907 C1.18100907,5.15124182 1.00707205,4.57790742 1.2129811,4.08079344 C1.41889014,3.58367946 1.94729688,3.30123865 2.47504964,3.40620012 C3.0028024,3.51116158 3.38293094,3.97429218 3.38293094,4.51236041 C3.38375764,4.81165106 3.26480422,5.09883323 3.05258531,5.30988381 L3.05258531,5.30988381 Z M15.7894737,4.51236041 C15.7894737,3.45899038 15.0660842,2.57431743 14.0897025,2.32617358 C14.092177,2.30274776 14.0931975,2.27919114 14.0927583,2.25563911 L14.0927583,0.563893859 C14.0927583,0.252745144 13.8405122,0.000509274 13.529351,0.000509274 C13.2181897,0.000509274 12.9659437,0.252745144 12.9659437,0.563893859 L12.9659437,2.25563911 C12.9661981,2.27957751 12.9679629,2.30347601 12.9712276,2.32719212 C11.9972014,2.57673649 11.277377,3.46032722 11.277377,4.51236041 C11.277377,5.5643936 11.9967558,6.44792068 12.970782,6.69752868 C12.9676691,6.72089347 12.9660107,6.74442907 12.9658163,6.7679995 L12.9658163,15.2255798 C12.9658163,15.5367285 13.2180624,15.7889644 13.5292236,15.7889644 C13.8403849,15.7889644 14.0926309,15.5367285 14.0926309,15.2255798 L14.0926309,6.7679995 C14.0930671,6.74481074 14.0920892,6.72161696 14.0897025,6.69854723 C15.0661478,6.45033972 15.7894737,5.56566677 15.7894737,4.51236041 L15.7894737,4.51236041 Z M14.3312355,5.30982014 C13.9507375,5.69023582 13.3544929,5.74890687 12.9071388,5.44995267 C12.4597847,5.15099847 12.2859143,4.5776812 12.491859,4.08061646 C12.6978038,3.58355171 13.2262058,3.30117775 13.7539176,3.40618204 C14.2816294,3.51118634 14.6616772,3.974324 14.6616445,4.51236041 C14.6624377,4.8116382 14.5434621,5.0987956 14.3312355,5.30982014 L14.3312355,5.30982014 Z" id="形状"></path>
                </g>
            </g>
        </g>
    </g>
</svg>