<?xml version="1.0" encoding="UTF-8"?>
<svg width="24px" height="24px" viewBox="0 0 24 24" version="1.1" xmlns="http://www.w3.org/2000/svg" xmlns:xlink="http://www.w3.org/1999/xlink">
    <title>编组</title>
    <defs>
        <filter color-interpolation-filters="auto" id="filter-1">
            <feColorMatrix in="SourceGraphic" type="matrix" values="0 0 0 0 0.125490 0 0 0 0 0.176471 0 0 0 0 0.254902 0 0 0 1.000000 0"></feColorMatrix>
        </filter>
    </defs>
    <g id="页面-1" stroke="none" stroke-width="1" fill="none" fill-rule="evenodd">
        <g id="编组" transform="translate(-21.000000, -97.000000)" filter="url(#filter-1)">
            <g transform="translate(21.000000, 97.000000)">
                <rect id="矩形" x="0" y="0" width="24" height="24"></rect>
                <path d="M20,11.9998878 C20,7.5815632 16.4183908,4 12,4 C7.58160923,4 4,7.5815632 4,11.9998878 C4,16.4184368 7.58160925,20 12,20 C13.8138322,20 15.4746052,19.3829095 16.8166195,18.3659499 C16.8717249,18.3034218 16.9079819,18.2236163 16.9079819,18.1339192 C16.9079819,17.938089 16.7491355,17.7793007 16.5533401,17.7793007 C16.4516934,17.7793007 16.3612285,17.8196335 16.296624,17.8879207 L16.2921176,17.8879207 C15.0912233,18.7715595 13.6131191,19.3006545 12.0078441,19.3006545 C8.00702606,19.3006545 4.76317359,16.0564323 4.76317359,12.0558527 C4.76317359,8.05467466 8.00702606,4.81125655 12.0078441,4.81125655 C16.0090549,4.81125655 19.2525147,8.05467466 19.2525147,12.0558527 C19.2525147,13.2776739 18.9657683,14.427917 18.430926,15.4383321 L18.430926,15.4442782 C18.4210904,15.4779918 18.4103947,15.5108826 18.4103947,15.5471017 C18.4103947,15.7429693 18.5691664,15.9017203 18.7650178,15.9017203 C18.9176562,15.9017203 19.0451635,15.8038332 19.0949398,15.6688856 L19.0949398,15.6713538 C19.6647115,14.5702506 20,13.3245325 20,11.9998878 Z M11.7259239,7.40277632 C11.7259239,7.18054607 11.5633871,7 11.362977,7 C11.1629577,7 11.0004563,7.18054605 11.0004563,7.40277632 L11.0004563,12.1935794 C11.0004563,12.1935794 10.9567237,13.0034721 11.7255155,12.999132 L15.6331469,12.999132 C15.6343365,12.999132 15.6358635,13 15.6371064,13 C15.8374632,13 16,12.8194737 16,12.5972434 C16,12.3750132 15.8374632,12.1944671 15.6374793,12.1935794 L11.7255333,12.1935794 L11.7255333,7.40540009 C11.7255333,7.40453207 11.7259239,7.40364434 11.7259239,7.40277632 Z" id="形状" fill="#000000" fill-rule="nonzero"></path>
            </g>
        </g>
    </g>
</svg>