<?xml version="1.0" standalone="no"?><!DOCTYPE svg PUBLIC "-//W3C//DTD SVG 1.1//EN" "http://www.w3.org/Graphics/SVG/1.1/DTD/svg11.dtd"><svg t="1657165217626" class="icon" viewBox="0 0 1024 1024" version="1.1" xmlns="http://www.w3.org/2000/svg" p-id="1505" xmlns:xlink="http://www.w3.org/1999/xlink" width="200" height="200"><defs><style type="text/css">@font-face { font-family: feedback-iconfont; src: url("//at.alicdn.com/t/font_1031158_u69w8yhxdu.woff2?t=1630033759944") format("woff2"), url("//at.alicdn.com/t/font_1031158_u69w8yhxdu.woff?t=1630033759944") format("woff"), url("//at.alicdn.com/t/font_1031158_u69w8yhxdu.ttf?t=1630033759944") format("truetype"); }
</style></defs><path d="M471.4 195c-35.1 4.8-86.1 24.4-110.4 42.3-2.7 2-5.6 3.8-8.6 5.4-6.4 4.3-12.5 9-18.4 14.1-32.2 27.1-59.3 63.1-74.6 98.9-8.1 19.2-10.8 27-18.5 55.7-2.5 9.8-6 14.2-11.4 14.2-9.3 0-57.1 20.5-71.9 30.6-11.1 7.8-37.8 31.7-42.6 38.2-25 34.2-29.7 42.8-37.7 67.9-6.9 21.9-9.8 40.7-9.8 63.4 0 56.8 19.6 104.4 59.7 144.4 24.7 24.8 53.8 42.6 83.7 51 35.2 9.8 24.9 9.6 300.1 9.6 231.2 0 255.1-0.3 270.6-3 18.9-3.5 47.1-10.9 50.4-13.4 1.2-0.9 5-2.8 8.4-4.1 8.2-3.2 27-15.5 41.1-26.7 45.8-36.6 74.4-97.4 74.6-158 0-17.5-6.9-57.5-11.6-66.4-1.3-2.3-2.2-4.9-2.7-7.5 0-3.2-13.7-29.9-17.5-34.3-2.9-3.6-5.6-7.3-8.2-11.2-6.9-11.1-15.8-20.5-33.1-34.9-17.3-14.8-28.5-22.5-37.4-26-2.9-1-5.6-2.3-8.2-3.9-2.5-1.8-34.6-13.6-43.4-15.8-10.9-1.6-22-2.5-33-2.8-29.9-1.1-51.6 1.1-66.8 6.8-5.3 2-13.6 4.8-18.1 6.4-10.8 3.6-33 15.7-43.5 23.7-22.5 17.3-68.8 58.7-94.2 84.6-10 10.2-128.2 124.1-167.2 161.2-9.8 9.3-24.4 23.7-32.6 31.9l-14.8 14.8-29.6-1.3c-15.2-0.5-30.3-1.7-45.4-3.6-46.3-7.7-84.4-42.6-97-89-3.7-13.6-4.1-47.9-0.7-61.4 5.9-23.2 22.8-49.9 41.5-65.6 19.7-16.5 54.3-28.8 81-28.8 32.1 0 67.7 16.5 99.2 45.9 6 5.5 14.9 13.3 19.6 17.3 4.8 3.9 13.7 11.7 19.6 17.3 6 5.7 11.9 10.4 13.3 10.4 3.2 0 10.2-5.9 35.4-30.6 11.9-11.8 21.7-22.5 21.7-23.7 0-1.2-7.8-8.9-17.3-16.9-9.6-8.2-18.7-16-20.3-17.8-3.4-3.9-35.2-29.8-51.6-42-17-12.3-35.8-22.2-55.6-29.2-8.7-3.4-16.2-6.8-16.5-8-0.9-2.3 10.3-34.6 15.7-44.5 11-21.2 25.1-39.2 45.4-58.4 18.5-17.5 48.7-34.2 72.7-40.2 3.9-0.9 12.3-3.2 18.7-4.8 8.5-2.3 18.3-3.2 37.4-3.2 22.2 0 28.3 0.7 44.5 4.8C590.9 288 614.8 300 639 321c15.5 13.6 31.6 32.4 41.7 49.7 4.7 7.9 9.1 14.6 9.8 15.2 4.3-0.1 8.7-0.8 12.8-2 6.4-1.4 24-3.2 39.2-3.7 30.9-1.4 31.8-1.8 25.2-14.3-1.8-3.6-4.4-9.8-5.7-13.7-1.6-4.7-3.7-9.1-6.3-13.3-1.8-2.8-3.5-5.8-4.9-8.9-3.9-8.2-20.1-29.9-35.3-47.3-18.4-21-51.1-45.6-78.2-58.8-6.7-3.3-13.4-6.7-20.1-10-3.2-1.6-8.9-3.6-32.4-10.9-29.8-10-76.3-13.1-113.4-8z m303.7 310c32.8 8.4 51 19 70.2 41.5 20 22.9 27.4 43.6 28.3 77.3 0.8 20.9 0.4 24-3.9 37.2-6.1 18.8-12 30.5-21 41.6-17.3 21.2-42.4 37.5-66.1 43.1-12.1 2-24.4 3.4-36.6 4.1-33 2.1-300.4 2.3-301.7 0.2-0.5-0.9 18.4-20.4 42.1-43.1 23.7-23 48.3-46.9 54.7-53.2 19.2-18.9 92.9-89.4 103.4-98.9 3.9-3.5 7.7-7.2 11.3-11.1 2.3-3.6 26.7-21.2 37.2-26.7 5.2-2.8 15.5-6.9 22.8-9.3 7.3-2.1 14.2-4.3 15.1-4.6 5.1-1.9 34.7-0.6 44.2 1.9z m0 0" fill="#666666" p-id="1506"></path></svg>