<?xml version="1.0" standalone="no"?><!DOCTYPE svg PUBLIC "-//W3C//DTD SVG 1.1//EN" "http://www.w3.org/Graphics/SVG/1.1/DTD/svg11.dtd"><svg t="1656040919890" class="icon" viewBox="0 0 1024 1024" version="1.1" xmlns="http://www.w3.org/2000/svg" p-id="1614" xmlns:xlink="http://www.w3.org/1999/xlink" width="200" height="200"><defs><style type="text/css">@font-face { font-family: feedback-iconfont; src: url("//at.alicdn.com/t/font_1031158_u69w8yhxdu.woff2?t=1630033759944") format("woff2"), url("//at.alicdn.com/t/font_1031158_u69w8yhxdu.woff?t=1630033759944") format("woff"), url("//at.alicdn.com/t/font_1031158_u69w8yhxdu.ttf?t=1630033759944") format("truetype"); }
</style></defs><path d="M498.526316 455.410526H296.421053l45.810526-48.505263c8.084211-8.084211 8.084211-18.863158 0-26.947368s-18.863158-8.084211-26.947368 0L237.136842 458.105263l-5.389474 5.389474c-2.694737 5.389474-2.694737 10.778947 0 13.473684 0 2.694737 2.694737 5.389474 5.389474 5.389474l80.842105 80.842105c2.694737 2.694737 8.084211 5.389474 13.473685 5.389474s10.778947-2.694737 13.473684-5.389474c8.084211-8.084211 8.084211-18.863158 0-26.947368L296.421053 487.747368h191.326315c37.726316 0 67.368421 29.642105 67.368421 67.368421s-29.642105 67.368421-67.368421 67.368422h-78.147368c-10.778947 0-18.863158 8.084211-18.863158 18.863157s8.084211 18.863158 18.863158 18.863158h78.147368c56.589474 0 105.094737-45.810526 105.094737-105.094737-2.694737-48.505263-43.115789-94.315789-94.315789-99.705263z" fill="#101010" p-id="1615"></path><path d="M962.021053 353.010526c-18.863158-10.778947-37.726316-10.778947-56.589474 0L781.473684 423.073684v-137.431579c0-51.2-40.421053-91.621053-91.621052-91.621052H126.652632c-51.2 0-91.621053 40.421053-91.621053 91.621052v479.663158c0 51.2 40.421053 91.621053 91.621053 91.621053h560.505263c51.2 0 91.621053-40.421053 91.621052-91.621053v-67.368421l123.957895 70.063158c8.084211 5.389474 18.863158 8.084211 26.947369 8.084211 10.778947 0 18.863158-2.694737 26.947368-8.084211 18.863158-10.778947 29.642105-29.642105 29.642105-48.505263V401.515789c2.694737-21.557895-8.084211-40.421053-24.252631-48.505263zM687.157895 819.2H126.652632c-29.642105 0-53.894737-24.252632-53.894737-53.894737V285.642105c0-29.642105 24.252632-53.894737 53.894737-53.894737h560.505263c29.642105 0 53.894737 24.252632 53.894737 53.894737v479.663158c2.694737 29.642105-24.252632 53.894737-53.894737 53.894737z m264.08421-102.4c0 10.778947-5.389474 13.473684-8.08421 16.168421-2.694737 2.694737-10.778947 5.389474-18.863158 0l-142.821053-80.842105v-185.936842l142.821053-83.536842c8.084211-5.389474 16.168421-2.694737 18.863158 0 2.694737 2.694737 8.084211 5.389474 8.08421 16.168421v317.978947z" fill="#101010" p-id="1616"></path></svg>